# xmcd
#
# Track frame offsets:
#	150
#	22495
#	36312
#	54820
#	67615
#	85052
#	99997
#	117362
#	136047
#	152062
#	170290
#	203014
#
# Disc length: 3026 seconds
#
# Revision: 0
# Processed by: cddbd v1.4PL0 Copyright (c) Steve Scherf et al.
# Submitted via: dBpowerAMP V4.0
#
DISCID=8f0bd00c
DTITLE=Paulo Miklos - Vou Ser Feliz e Já Volto
DYEAR=2001
DGENRE=Blues
TTITLE0=Vai Acontecer De Novo
TTITLE1=Mamãe Disse... Papai Disse...
TTITLE2=Todo O Tempo
TTITLE3=O Que Você Me Diz?
TTITLE4=Hoje
TTITLE5=Por Querer
TTITLE6=Lamina de Vidro
TTITLE7=Orgia
TTITLE8=Sem Amor
TTITLE9=Sinos Entre Os Anjos
TTITLE10=O Milagre do Ladrão
TTITLE11=DATA
EXTD=
EXTT0=
EXTT1=
EXTT2=
EXTT3=
EXTT4=
EXTT5=
EXTT6=
EXTT7=
EXTT8=
EXTT9=
EXTT10=
EXTT11=
PLAYORDER=
